{"title":"Super Model 2013 DVDScr -Xvid 1CD Team IcTv Hindi","uid":8978041,"size":714201232,"categoryP":"video","categoryS":"movies","magnet":"?xt=urn:btih:13b7ff89890d55845109d48494e1db80a9083f1f&amp;dn=Super+Model+2013+DVDScr+-Xvid+1CD+Team+IcTv+Hindi&amp;tr=udp%3A%2F%2Ftracker.openbittorrent.com%3A80&amp;tr=udp%3A%2F%2Fopen.demonii.com%3A1337&amp;tr=udp%3A%2F%2Ftracker.coppersurfer.tk%3A6969&amp;tr=udp%3A%2F%2Fexodus.desync.com%3A6969","seeders":1,"leechers":0,"uploader":"SJonam","files":1,"time":1380490429,"description":" &lt;a href=&quot;http://picturestack.com/194/211/pLB1Z5w.jpg&quot; rel=&quot;nofollow&quot; target=&quot;_NEW&quot;&gt;http://picturestack.com/194/211/pLB1Z5w.jpg&lt;/a&gt; &lt;a href=&quot;\nhttp://s12.postimg.org/c7phwgit9/SUPER_MODEL.jpg&quot; rel=&quot;nofollow&quot; target=&quot;_NEW&quot;&gt;\nhttp://s12.postimg.org/c7phwgit9/SUPER_MODEL.jpg&lt;/a&gt; &lt;a href=&quot;\nhttp://s8.postimg.org/nceupyyj9/image.jpg&quot; rel=&quot;nofollow&quot; target=&quot;_NEW&quot;&gt;\nhttp://s8.postimg.org/nceupyyj9/image.jpg&lt;/a&gt; &lt;a href=&quot;\nhttp://s8.postimg.org/jipzuk6l1/image.jpg&quot; rel=&quot;nofollow&quot; target=&quot;_NEW&quot;&gt;\nhttp://s8.postimg.org/jipzuk6l1/image.jpg&lt;/a&gt; &lt;a href=&quot;\nhttp://s8.postimg.org/6d5wapnbp/image.jpg&quot; rel=&quot;nofollow&quot; target=&quot;_NEW&quot;&gt;\nhttp://s8.postimg.org/6d5wapnbp/image.jpg&lt;/a&gt; &lt;a href=&quot;\nhttp://s8.postimg.org/s9sfb30id/image.jpg&quot; rel=&quot;nofollow&quot; target=&quot;_NEW&quot;&gt;\nhttp://s8.postimg.org/s9sfb30id/image.jpg&lt;/a&gt; &lt;a href=&quot;\nhttp://s8.postimg.org/l0bg64bbp/image.jpg&quot; rel=&quot;nofollow&quot; target=&quot;_NEW&quot;&gt;\nhttp://s8.postimg.org/l0bg64bbp/image.jpg&lt;/a&gt; &lt;a href=&quot;\nhttp://s8.postimg.org/i8s6fict1/image.jpg&quot; rel=&quot;nofollow&quot; target=&quot;_NEW&quot;&gt;\nhttp://s8.postimg.org/i8s6fict1/image.jpg&lt;/a&gt;\n\nMedia Info - \nGeneral\nComplete name : Super Model (2013) DVDScr -Xvid - [1CD] Team IcTv Exclsive (1).avi\nFormat : AVI\nFormat/Info : Audio Video Interleave\nFile size : 681 MiB\nDuration : 1h 25mn\nOverall bit rate : 1 115 Kbps\n\nVideo\nFormat : MPEG-4 Visual\nFormat profile : Advanced Simple@L5\nFormat settings, BVOP : Yes\nFormat settings, QPel : No\nFormat settings, GMC : No warppoints\nFormat settings, Matrix : Default (H.263)\nCodec ID : XVID\nCodec ID/Hint : XviD\nDuration : 1h 25mn\nBit rate : 1 029 Kbps\nWidth : 640 pixels\nHeight : 272 pixels\nDisplay aspect ratio : 2.35:1\nFrame rate : 23.976 fps\nColor space : YUV\nChroma subsampling : 4:2:0\nBit depth : 8 bits\nScan type : Progressive\nCompression mode : Lossy\nBits/(Pixel*Frame) : 0.247\nStream size : 629 MiB (92%)\nWriting library : XviD 1.2.1 (UTC 2008-12-04)\n\nAudio\nFormat : MPEG Audio\nFormat version : Version 1\nFormat profile : Layer 3\nMode : Joint stereo\nMode extension : MS Stereo\nCodec ID : 55\nCodec ID/Hint : MP3\nDuration : 1h 25mn\nBit rate mode : Constant\nBit rate : 80.0 Kbps\nChannel(s) : 2 channels\nSampling rate : 32.0 KHz\nCompression mode : Lossy\nStream size : 48.9 MiB (7%)\nAlignment : Aligned on interleaves\nInterleave, duration : 167 ms (4.00 video frames)\nInterleave, preload duration : 216 ms\nTitle : VTS_01_1 Tc0 L2 2ch 48 128 DELAY 0ms\nWriting library : LAME3.99r\nEncoding settings : -m j -V 4 -q 2 -lowpass 13.5 -b 80\n\nRipper : Master Mind\n\nSeeding 24x7... Extreme Seeding...\n\n\nEnjoy!\n","torrent":{"xt":"urn:btih:13b7ff89890d55845109d48494e1db80a9083f1f","amp;dn":"Super+Model+2013+DVDScr+-Xvid+1CD+Team+IcTv+Hindi","amp;tr":["udp%3A%2F%2Ftracker.openbittorrent.com%3A80","udp%3A%2F%2Fopen.demonii.com%3A1337","udp%3A%2F%2Ftracker.coppersurfer.tk%3A6969","udp%3A%2F%2Fexodus.desync.com%3A6969"],"infoHash":"13b7ff89890d55845109d48494e1db80a9083f1f","infoHashBuffer":{"type":"Buffer","data":[19,183,255,137,137,13,85,132,81,9,212,132,148,225,219,128,169,8,63,31]},"announce":[],"urlList":[]}}